<?xml version="1.0" encoding="UTF-8"?>
<svg xmlns="http://www.w3.org/2000/svg" version="1.1" width="800" height="400">
	<circle cx="50" cy="385.0" r="3" fill="blue" />
	<circle cx="100" cy="385.0" r="3" fill="blue" />
	<circle cx="150" cy="385.0" r="3" fill="blue" />
	<circle cx="200" cy="386.0" r="3" fill="blue" />
	<circle cx="250" cy="386.0" r="3" fill="blue" />
	<circle cx="300" cy="386.0" r="3" fill="blue" />
	<circle cx="350" cy="387.0" r="3" fill="blue" />
	<circle cx="400" cy="386.0" r="3" fill="blue" />
	<circle cx="450" cy="386.0" r="3" fill="blue" />
	<circle cx="500" cy="386.0" r="3" fill="blue" />
	<circle cx="550" cy="386.0" r="3" fill="blue" />
	<circle cx="600" cy="386.0" r="3" fill="blue" />
	<circle cx="650" cy="386.0" r="3" fill="blue" />
	<circle cx="700" cy="386.0" r="3" fill="blue" />
	<circle cx="750" cy="385.0" r="3" fill="blue" />
	<circle cx="800" cy="385.0" r="3" fill="blue" />
	<circle cx="850" cy="385.0" r="3" fill="blue" />
	<circle cx="900" cy="385.0" r="3" fill="blue" />
	<circle cx="950" cy="385.0" r="3" fill="blue" />
	<circle cx="1000" cy="385.0" r="3" fill="blue" />
	<circle cx="1050" cy="386.0" r="3" fill="blue" />
	<circle cx="1100" cy="387.0" r="3" fill="blue" />
	<circle cx="1150" cy="387.0" r="3" fill="blue" />
	<circle cx="1200" cy="387.0" r="3" fill="blue" />
	<circle cx="1250" cy="387.0" r="3" fill="blue" />
	<circle cx="1300" cy="387.0" r="3" fill="blue" />
	<circle cx="1350" cy="387.0" r="3" fill="blue" />
	<circle cx="1400" cy="386.0" r="3" fill="blue" />
	<circle cx="1450" cy="386.0" r="3" fill="blue" />
	<circle cx="1500" cy="386.0" r="3" fill="blue" />
	<circle cx="1550" cy="386.0" r="3" fill="blue" />
	<circle cx="1600" cy="386.0" r="3" fill="blue" />
	<circle cx="1650" cy="385.0" r="3" fill="blue" />
	<circle cx="1700" cy="385.0" r="3" fill="blue" />
	<circle cx="1750" cy="385.0" r="3" fill="blue" />
	<circle cx="1800" cy="387.0" r="3" fill="blue" />
	<circle cx="1850" cy="387.0" r="3" fill="blue" />
	<circle cx="1900" cy="387.0" r="3" fill="blue" />
	<circle cx="1950" cy="386.0" r="3" fill="blue" />
	<circle cx="2000" cy="386.0" r="3" fill="blue" />
	<circle cx="2050" cy="386.0" r="3" fill="blue" />
	<circle cx="2100" cy="397.0" r="3" fill="blue" />
	<circle cx="2150" cy="397.0" r="3" fill="blue" />
	<circle cx="2200" cy="397.0" r="3" fill="blue" />
	<circle cx="2250" cy="397.0" r="3" fill="blue" />
	<text x="50" y="375.0" font-size="10" fill="black">15.0</text>
	<text x="100" y="375.0" font-size="10" fill="black">15.0</text>
	<text x="150" y="375.0" font-size="10" fill="black">15.0</text>
	<text x="200" y="376.0" font-size="10" fill="black">14.0</text>
	<text x="250" y="376.0" font-size="10" fill="black">14.0</text>
	<text x="300" y="376.0" font-size="10" fill="black">14.0</text>
	<text x="350" y="377.0" font-size="10" fill="black">13.0</text>
	<text x="400" y="376.0" font-size="10" fill="black">14.0</text>
	<text x="450" y="376.0" font-size="10" fill="black">14.0</text>
	<text x="500" y="376.0" font-size="10" fill="black">14.0</text>
	<text x="550" y="376.0" font-size="10" fill="black">14.0</text>
	<text x="600" y="376.0" font-size="10" fill="black">14.0</text>
	<text x="650" y="376.0" font-size="10" fill="black">14.0</text>
	<text x="700" y="376.0" font-size="10" fill="black">14.0</text>
	<text x="750" y="375.0" font-size="10" fill="black">15.0</text>
	<text x="800" y="375.0" font-size="10" fill="black">15.0</text>
	<text x="850" y="375.0" font-size="10" fill="black">15.0</text>
	<text x="900" y="375.0" font-size="10" fill="black">15.0</text>
	<text x="950" y="375.0" font-size="10" fill="black">15.0</text>
	<text x="1000" y="375.0" font-size="10" fill="black">15.0</text>
	<text x="1050" y="376.0" font-size="10" fill="black">14.0</text>
	<text x="1100" y="377.0" font-size="10" fill="black">13.0</text>
	<text x="1150" y="377.0" font-size="10" fill="black">13.0</text>
	<text x="1200" y="377.0" font-size="10" fill="black">13.0</text>
	<text x="1250" y="377.0" font-size="10" fill="black">13.0</text>
	<text x="1300" y="377.0" font-size="10" fill="black">13.0</text>
	<text x="1350" y="377.0" font-size="10" fill="black">13.0</text>
	<text x="1400" y="376.0" font-size="10" fill="black">14.0</text>
	<text x="1450" y="376.0" font-size="10" fill="black">14.0</text>
	<text x="1500" y="376.0" font-size="10" fill="black">14.0</text>
	<text x="1550" y="376.0" font-size="10" fill="black">14.0</text>
	<text x="1600" y="376.0" font-size="10" fill="black">14.0</text>
	<text x="1650" y="375.0" font-size="10" fill="black">15.0</text>
	<text x="1700" y="375.0" font-size="10" fill="black">15.0</text>
	<text x="1750" y="375.0" font-size="10" fill="black">15.0</text>
	<text x="1800" y="377.0" font-size="10" fill="black">13.0</text>
	<text x="1850" y="377.0" font-size="10" fill="black">13.0</text>
	<text x="1900" y="377.0" font-size="10" fill="black">13.0</text>
	<text x="1950" y="376.0" font-size="10" fill="black">14.0</text>
	<text x="2000" y="376.0" font-size="10" fill="black">14.0</text>
	<text x="2050" y="376.0" font-size="10" fill="black">14.0</text>
	<text x="2100" y="387.0" font-size="10" fill="black">3.0</text>
	<text x="2150" y="387.0" font-size="10" fill="black">3.0</text>
	<text x="2200" y="387.0" font-size="10" fill="black">3.0</text>
	<text x="2250" y="387.0" font-size="10" fill="black">3.0</text>
</svg>
